<?xml version="1.0" encoding="utf-8"?>
<!-- Generator: Adobe Illustrator 23.1.1, SVG Export Plug-In . SVG Version: 6.00 Build 0)  -->
<svg version="1.1" id="Layer_1" xmlns="http://www.w3.org/2000/svg" xmlns:xlink="http://www.w3.org/1999/xlink" x="0px" y="0px"
	 viewBox="0 0 24 21" style="enable-background:new 0 0 24 21;" xml:space="preserve">
<style type="text/css">
	.st0{fill:#426FB5;}
</style>
<path class="st0" d="M0.8,0c-1,0-1.1,1.4-0.2,1.6L2.4,2c0.9,4.4,1.9,8.9,2.9,13.3c0.1,0.4,0.4,0.6,0.8,0.6H20c1.1,0,1.1-1.6,0-1.6
	H6.7l-0.4-1.6h14.4c0.4,0,0.7-0.3,0.8-0.6l1.8-7.9c0.1-0.5-0.3-1-0.8-1c-6.1,0-12.1,0-18.2,0l-0.4-2C3.8,0.8,3.5,0.6,3.2,0.5L1,0
	C0.9,0,0.9,0,0.8,0L0.8,0z M9.4,16.4c-1.2,0-2.1,1-2.1,2.1c0,1.2,1,2.1,2.1,2.1c1.2,0,2.1-1,2.1-2.1C11.5,17.4,10.6,16.4,9.4,16.4z
	 M16.8,16.4c-1.2,0-2.1,1-2.1,2.1c0,1.2,1,2.1,2.1,2.1c1.2,0,2.1-1,2.1-2.1C18.9,17.4,18,16.4,16.8,16.4z"/>
</svg>
