<svg width="16" height="16" viewBox="0 0 16 16" fill="none" xmlns="http://www.w3.org/2000/svg">
<path fill-rule="evenodd" clip-rule="evenodd" d="M12.6491 0.0175781H3.03244C1.36238 0.0175781 0.00292969 1.38597 0.00292969 3.06908V12.7555C0.00292969 14.4387 1.36238 15.807 3.03244 15.807H12.6491C14.3191 15.807 15.6786 14.4387 15.6786 12.7555V3.06908C15.6786 1.38597 14.3191 0.0175781 12.6491 0.0175781V0.0175781ZM13.518 1.83834L13.8646 1.83648V4.51293L11.2157 4.52129L11.2065 1.84484L13.518 1.83834V1.83834ZM5.60389 6.29108C6.10527 5.5911 6.92002 5.1325 7.84076 5.1325C8.7615 5.1325 9.57625 5.5911 10.0776 6.29108C10.4048 6.74783 10.6002 7.3067 10.6002 7.91199C10.6002 9.44378 9.36243 10.6906 7.84076 10.6906C6.32002 10.6906 5.08223 9.44378 5.08223 7.91199C5.08223 7.3067 5.27762 6.74783 5.60389 6.29108V6.29108ZM14.1512 12.7553C14.1512 13.5899 13.4774 14.2685 12.6489 14.2685H3.03224C2.20366 14.2685 1.52993 13.5899 1.52993 12.7553V6.29114H3.87095C3.66818 6.79245 3.55482 7.33925 3.55482 7.91205C3.55482 10.2924 5.47741 12.2298 7.84055 12.2298C10.2046 12.2298 12.1272 10.2924 12.1272 7.91205C12.1272 7.33925 12.012 6.79245 11.8111 6.29114H14.1512V12.7553V12.7553Z" fill="#232323"/>
</svg>
