<svg  width="134" height="40" version="1.1" xmlns="http://www.w3.org/2000/svg" xmlns:xlink="http://www.w3.org/1999/xlink" x="0px" y="0px"
	 viewBox="0 0 448.1 138.3" style="enable-background:new 0 0 448.1 138.3;" xml:space="preserve">
<style type="text/css">
	.st0{fill-rule:evenodd;clip-rule:evenodd;fill:#0460AA;}
	.st1{fill:#FBC311;}
	.st2{fill:#DBDAD9;}
</style>
<g id="Layer_1">
</g>
<g id="Isolation_Mode">
	<g>
		<path class="st0" d="M1150.2-380.3c0-4.2,3.4-7.6,7.6-7.6h522.4c4.2,0,7.6,3.4,7.6,7.6v166.8c0,4.2-3.4,7.6-7.6,7.6h-522.4
			c-4.2,0-7.6-3.4-7.6-7.6V-380.3z"/>
		<g>
			<path class="st1" d="M1446.2-288.8c-0.3,0.7,0.1,1.3,0.9,1.3h3.8h3.4c0.8,0,1.4-0.6,1.3-1.4l-0.8-9.3c0-0.7-0.1-2-0.2-2.8
				c0,0-0.2-4.5-0.2-7.3c-0.5,0-1.1,0.6-1.4,1.3l-2.2,5.9L1446.2-288.8z M1440.1-271.3c-0.8,0-1.6,0.6-1.9,1.3l-2.3,6
				c-0.3,0.7-1.1,1.3-1.8,1.3h-23.5c-0.8,0-1.1-0.6-0.8-1.3l33.3-65.7c0.3-0.7,1.3-1.2,2-1.2h5.9h18.8c0.8,0,1.5,0.6,1.6,1.4
				l13,65.5c0.2,0.8-0.3,1.4-1.1,1.4h-23.4c-0.8,0-1.5-0.6-1.6-1.4l-0.6-5.8c-0.1-0.8-0.8-1.4-1.6-1.4h-5.2H1440.1z M1562.8-290.7
				l0.3-1.6l5.9-37.3c0.2-0.8,0.9-1.4,1.6-1.4h22c0.7,0,1.3,0.6,1.1,1.4l-5.5,35.2c-0.2,0.8-0.3,2-0.4,2.8c0,0-1.2,8.6,5.4,8.6
				c6.6,0,7.5-4.7,8.4-10l5.8-36.6c0.2-0.8,0.9-1.4,1.6-1.4h22c0.8,0,1.3,0.6,1.1,1.4l-6,37.6c-0.1,0.8-0.3,2-0.6,3.5
				c0,0-3.2,27.6-35.8,26.9c-14.2-0.3-23.9-5.2-26.7-15.8C1562.1-281.2,1561.9-285.6,1562.8-290.7z M1563-329.3l-24.4,30.4
				c-0.4,0.6-0.6,1.6-0.3,2.3l16.8,32.5c0.3,0.7,0,1.3-0.8,1.3h-26c-0.8,0-1.6-0.6-1.9-1.3l-7.4-18.1c-0.3-0.7-0.9-1.8-1.2-2.5
				c0,0-2.2-4-2.2-6.7c-0.3,0-0.6,0.6-0.7,1.4l-3.6,25.8c-0.1,0.8-0.8,1.4-1.5,1.4h-21.4c-0.8,0-1.3-0.6-1.1-1.4l10.4-65.5
				c0.1-0.8,0.9-1.4,1.6-1.4h21.4c0.8,0,1.3,0.6,1.1,1.4l-4.7,26.9c-0.1,0.7-0.1,1.4,0.1,1.4c0.1,0,0.5-0.6,0.9-1.2
				c0,0,2.2-4.1,4-6.6l14.6-20.7c0.4-0.6,1.4-1.1,2.2-1.1h24.3c0.8,0,1,0.5,0.5,1.1L1563-329.3z M1594.6-349.1
				c-0.9,5.9-6.4,10.5-12.3,10.5c-5.8,0-9.8-4.7-8.9-10.5c0.9-5.9,6.5-10.5,12.3-10.5C1591.6-359.7,1595.6-355,1594.6-349.1z
				 M1633.1-349.1c-1,5.9-6.5,10.5-12.3,10.5c-5.9,0-9.9-4.7-8.9-10.5c0.9-5.9,6.4-10.5,12.3-10.5
				C1630-359.7,1633.9-355,1633.1-349.1z M1238.9-313.1l-7.8,49c-0.1,0.8-0.9,1.4-1.6,1.4h-22c-0.7,0-1.2-0.6-1.1-1.4l10.4-65.5
				c0.1-0.8,0.9-1.4,1.6-1.4h20.6h1.4c0.8,0,1.3,0.6,1.2,1.4L1238.9-313.1z M1238.9-342.1c-2.3,2.2-5.3,3.5-8.4,3.5
				c-5.9,0-9.9-4.7-8.9-10.5c0.9-5.9,6.4-10.5,12.3-10.5c1.9,0,3.5,0.4,5,1.4c2.8,1.8,4.5,5.2,3.9,9.2
				C1242.4-346.4,1240.9-343.9,1238.9-342.1z M1237.5-262.8c-0.8,0-1.3-0.6-1.2-1.4l2.7-16.6l7.7-48.9c0.2-0.8,0.9-1.4,1.6-1.4h21
				c0.8,0,1.6,0.6,2,1.3l14.2,32.9c0.3,0.8,0.6,0.7,0.8-0.1l5.2-32.7c0.1-0.8,0.9-1.4,1.5-1.4h20.6h0.4c0.8,0,1.3,0.6,1.1,1.4
				l-1.6,10l-8.8,55.5c-0.1,0.8-0.9,1.4-1.6,1.5l-21-0.1c-0.8,0.1-1.6-0.5-2-1.2l-14.3-32.1c-0.3-0.7-0.7-0.6-0.8,0.1l-5,31.9
				c-0.2,0.8-0.9,1.4-1.6,1.4h-19.4H1237.5z M1365.4-262.8c-0.7,0-1.2-0.6-1.1-1.4l2.7-16.7l7.7-48.8c0.1-0.8,0.9-1.4,1.6-1.4h21.9
				c0.8,0,1.3,0.6,1.2,1.4l-10.4,65.5c-0.1,0.8-0.9,1.4-1.6,1.4H1367H1365.4z M1312.2-296.3c0.3-1.7,0.7-3.5,1.2-5.1
				c5.2-17.4,21.9-30.8,40.2-30.8c4.2,0,10.5,1.5,13.4,2.2c0.9,0.2,1.5,0.3,1.5,0.3c0.7,0.2,1.2,1,1.1,1.7l-2.6,20.3l-0.6,4.3
				c-3.4-3.7-7.9-6.9-13.5-6.9c-7.4,0-14.4,5.9-15.6,13.3c-1.2,7.5,4.3,13.3,11.7,13.3c5.7,0,10.6-2.4,15.3-6.3l-4.6,24.1
				c-0.1,0.8-0.9,1.5-1.6,1.6c0,0-6.2,2.3-16.8,2.4c-13.7,0.1-24.1-7.4-28-18.7C1311.8-285.2,1311.3-290.6,1312.2-296.3z
				 M1400.7-349.1c-0.9,5.9-6.5,10.5-12.3,10.5c-5.9,0-9.8-4.7-8.9-10.5c0.9-5.9,6.4-10.5,12.3-10.5
				C1397.6-359.7,1401.6-355,1400.7-349.1z M1645.4-329.6c-4.1,0-7.3,3.3-7.3,7.3c0,4.1,3.3,7.3,7.3,7.3c4.1,0,7.3-3.3,7.3-7.3
				C1652.7-326.4,1649.4-329.6,1645.4-329.6z M1645.4-331.4c5,0,9.1,4.1,9.1,9.1c0,5-4.1,9.1-9.1,9.1c-5,0-9.1-4.1-9.1-9.1
				C1636.3-327.3,1640.3-331.4,1645.4-331.4z M1643.1-321.4l0,4h-1.7v-9.8l5.3,0c0.9,0,1.7,0.2,2.3,0.6c0.7,0.6,1.1,1.3,1.1,2.2
				c0,0.6-0.2,1.2-0.5,1.7c-0.3,0.4-0.7,0.7-1.1,0.9l1.9,4.4l-1.8,0l-1.7-4L1643.1-321.4z M1648.3-324.4c0-0.5-0.2-0.8-0.5-1
				c-0.2-0.2-0.6-0.2-1.1-0.2h-3.5v2.7h3.4c0.7,0,1.1-0.2,1.4-0.4C1648.2-323.6,1648.3-323.9,1648.3-324.4z"/>
		</g>
		<g>
			<g>
				<path class="st2" d="M1285-247.2h9.2c1.8,0,3.2,0.2,4.2,0.7c1,0.5,1.8,1.2,2.3,2.1c0.5,0.9,0.9,2,1,3.2c0.1,1.2,0,2.5-0.3,3.9
					c-0.4,2.1-1,3.8-1.7,5c-0.7,1.2-1.6,2.2-2.6,3c-1,0.8-2,1.3-3.1,1.6c-1.4,0.4-2.7,0.5-3.8,0.5h-9.2L1285-247.2z M1290.3-242.7
					l-2.1,10.9h1.5c1.3,0,2.2-0.1,2.8-0.4c0.6-0.3,1.1-0.8,1.6-1.5c0.4-0.7,0.8-1.9,1.1-3.5c0.4-2.1,0.4-3.6-0.2-4.3
					c-0.5-0.8-1.6-1.2-3.2-1.2H1290.3z"/>
				<path class="st2" d="M1316.5-227.3h-5.2l0.5-2.3c-1,1-1.9,1.6-2.7,2.1s-1.9,0.6-3,0.6c-1.5,0-2.6-0.5-3.3-1.4
					c-0.7-0.9-0.8-2.3-0.5-4.2l1.8-9.2h5.6l-1.6,8c-0.2,0.9-0.1,1.6,0.1,1.9c0.3,0.4,0.7,0.6,1.3,0.6c0.7,0,1.3-0.3,1.8-0.8
					c0.5-0.5,0.9-1.4,1.2-2.7l1.4-7h5.5L1316.5-227.3z M1308-247h3.5l-0.7,3.4h-3.5L1308-247z M1313.8-247h3.6l-0.7,3.4h-3.6
					L1313.8-247z"/>
				<path class="st2" d="M1321.5-241.7h5.2l-0.5,2.4c1-1,1.9-1.6,2.7-2.1c0.9-0.4,1.9-0.6,3-0.6c1.5,0,2.6,0.5,3.3,1.4
					c0.7,0.9,0.8,2.3,0.5,4.2l-1.8,9.2h-5.6l1.6-8c0.2-0.9,0.1-1.5-0.1-1.9c-0.3-0.4-0.7-0.6-1.3-0.6c-0.7,0-1.3,0.3-1.8,0.8
					c-0.5,0.5-0.9,1.4-1.2,2.7l-1.4,6.9h-5.5L1321.5-241.7z"/>
				<path class="st2" d="M1337.4-241.7h5.8l1.1,9.6l4.6-9.6h5.5l-8.8,15.4c-1,1.8-1.9,3-2.7,3.6c-1.1,0.9-2.7,1.3-4.7,1.3
					c-0.8,0-2-0.1-3.6-0.3l0.3-3.9c0.7,0.3,1.6,0.4,2.6,0.4c0.7,0,1.2-0.2,1.7-0.4c0.5-0.3,0.9-0.8,1.3-1.6L1337.4-241.7z"/>
				<path class="st2" d="M1358.6-237.1l-5.2-0.6c0.4-0.9,0.8-1.7,1.3-2.2c0.5-0.5,1.1-1,1.9-1.4c0.6-0.3,1.3-0.5,2.2-0.7
					c0.9-0.2,1.9-0.2,2.9-0.2c1.7,0,3,0.1,3.9,0.3c1,0.2,1.7,0.6,2.3,1.2c0.4,0.4,0.7,1,0.8,1.7c0.1,0.7,0.1,1.5,0,2.1l-1.2,6.4
					c-0.1,0.7-0.2,1.2-0.2,1.6c0,0.4,0.1,0.9,0.3,1.5h-5.2c-0.1-0.4-0.2-0.7-0.2-0.9c0-0.2,0-0.5,0-0.9c-0.9,0.7-1.7,1.2-2.5,1.5
					c-1.1,0.4-2.2,0.6-3.5,0.6c-1.7,0-3-0.4-3.7-1.2c-0.7-0.8-1-1.8-0.8-3c0.2-1.1,0.7-2,1.5-2.7c0.8-0.7,2.1-1.2,3.9-1.6
					c2.2-0.4,3.6-0.7,4.2-0.9c0.7-0.2,1.3-0.4,2.1-0.7c0.1-0.7,0.1-1.2-0.1-1.4c-0.2-0.3-0.7-0.4-1.4-0.4c-0.9,0-1.6,0.1-2.1,0.4
					C1359.3-238.1,1358.9-237.7,1358.6-237.1z M1362.8-234.1c-0.8,0.3-1.7,0.5-2.5,0.7c-1.2,0.3-2,0.6-2.3,0.9
					c-0.4,0.3-0.6,0.6-0.7,1c-0.1,0.4,0,0.8,0.2,1.1c0.3,0.3,0.7,0.4,1.3,0.4c0.6,0,1.2-0.2,1.8-0.5s1-0.7,1.3-1.1
					c0.3-0.4,0.5-1,0.7-1.7L1362.8-234.1z"/>
				<path class="st2" d="M1372-241.7h5.2l-0.5,2.4c1-1,1.9-1.6,2.7-2.1c0.9-0.4,1.9-0.6,3-0.6c1.5,0,2.6,0.5,3.3,1.4
					c0.7,0.9,0.8,2.3,0.5,4.2l-1.8,9.2h-5.6l1.6-8c0.2-0.9,0.1-1.5-0.1-1.9c-0.3-0.4-0.7-0.6-1.3-0.6c-0.7,0-1.3,0.3-1.8,0.8
					c-0.5,0.5-0.9,1.4-1.2,2.7l-1.4,6.9h-5.5L1372-241.7z"/>
				<path class="st2" d="M1389.6-241.7h5.5l-2.8,14.5h-5.5L1389.6-241.7z"/>
				<path class="st2" d="M1397.6-241.7h5.2l-0.5,2.4c1-1,1.9-1.6,2.7-2.1c0.9-0.4,1.9-0.6,3-0.6c1.5,0,2.6,0.5,3.3,1.4
					c0.7,0.9,0.8,2.3,0.5,4.2l-1.8,9.2h-5.6l1.6-8c0.2-0.9,0.1-1.5-0.1-1.9c-0.3-0.4-0.7-0.6-1.3-0.6c-0.7,0-1.3,0.3-1.8,0.8
					c-0.5,0.5-0.9,1.4-1.2,2.7l-1.4,6.9h-5.5L1397.6-241.7z"/>
				<path class="st2" d="M1424.7-247.2h16.5l-0.8,4.3H1430l-0.6,3.2h9.6l-0.8,4.1h-9.6l-0.8,3.9h10.6l-0.9,4.5h-16.8L1424.7-247.2z"
					/>
				<path class="st2" d="M1442.3-241.7h5.2l-0.5,2.4c1-1,1.9-1.6,2.7-2.1c0.9-0.4,1.9-0.6,3-0.6c1.5,0,2.6,0.5,3.3,1.4
					c0.7,0.9,0.8,2.3,0.5,4.2l-1.8,9.2h-5.6l1.6-8c0.2-0.9,0.1-1.5-0.1-1.9c-0.3-0.4-0.7-0.6-1.3-0.6c-0.7,0-1.3,0.3-1.8,0.8
					c-0.5,0.5-0.9,1.4-1.2,2.7l-1.4,6.9h-5.5L1442.3-241.7z"/>
				<path class="st2" d="M1474.2-233.1H1463c-0.1,0.9,0,1.6,0.3,2c0.4,0.6,1.1,0.9,1.9,0.9c0.5,0,1.1-0.1,1.6-0.4
					c0.3-0.2,0.7-0.5,1.1-0.9l5.4,0.5c-1.1,1.5-2.3,2.5-3.6,3.1c-1.3,0.6-3.1,0.9-5.3,0.9c-1.9,0-3.4-0.3-4.4-0.8
					c-1-0.5-1.7-1.4-2.2-2.6c-0.5-1.2-0.6-2.6-0.3-4.1c0.4-2.3,1.5-4.1,3.2-5.5c1.7-1.4,3.9-2.1,6.4-2.1c2.1,0,3.6,0.3,4.7,0.9
					c1.1,0.6,1.8,1.5,2.2,2.7c0.4,1.2,0.4,2.7,0,4.6L1474.2-233.1z M1469-235.8c0.1-1.1,0-1.8-0.4-2.3c-0.4-0.5-0.9-0.7-1.7-0.7
					c-0.9,0-1.7,0.3-2.3,1c-0.4,0.4-0.8,1.1-1,1.9H1469z"/>
				<path class="st2" d="M1477.3-241.7h5.2l-0.5,2.4c0.7-1,1.4-1.7,2-2.1c0.6-0.4,1.3-0.6,2.1-0.6c0.8,0,1.7,0.3,2.5,0.8l-2.5,3.9
					c-0.6-0.3-1.1-0.4-1.5-0.4c-0.7,0-1.3,0.3-1.9,0.9c-0.7,0.8-1.3,2.4-1.8,4.7l-0.9,4.8h-5.6L1477.3-241.7z"/>
				<path class="st2" d="M1489.9-241.7h5.6l-2.7,14c-0.3,1.8-0.7,3.1-1.1,3.8c-0.4,0.7-1,1.3-1.8,1.8c-0.8,0.5-1.8,0.7-3.1,0.7
					c-1.1,0-2.4-0.2-3.9-0.5l1.6-4c0.4,0.1,0.7,0.1,1,0.1c0.5,0,0.9-0.2,1.2-0.5c0.3-0.3,0.6-1,0.7-1.9L1489.9-241.7z M1491-247.2
					h5.6l-0.7,3.8h-5.6L1491-247.2z"/>
				<path class="st2" d="M1498.1-241.7h5.5l-2.8,14.5h-5.5L1498.1-241.7z M1499.1-247.2h5.5l-0.7,3.8h-5.5L1499.1-247.2z"/>
				<path class="st2" d="M1528.6-247.2h6.2l-2.3,11.9c-0.2,1.2-0.6,2.3-1.2,3.3c-0.6,1-1.3,2-2.3,2.7c-0.9,0.8-1.9,1.3-2.8,1.7
					c-1.3,0.4-2.8,0.7-4.4,0.7c-1,0-2-0.1-3.1-0.2c-1.1-0.1-2-0.4-2.7-0.8c-0.7-0.4-1.3-1-1.8-1.7c-0.5-0.7-0.8-1.5-0.9-2.3
					c-0.1-1.3-0.1-2.4,0.1-3.4l2.3-11.9h6.2l-2.4,12.2c-0.2,1.1-0.1,1.9,0.4,2.6c0.5,0.6,1.3,0.9,2.3,0.9c1.1,0,2-0.3,2.7-0.9
					c0.7-0.6,1.2-1.5,1.4-2.6L1528.6-247.2z"/>
				<path class="st2" d="M1535.7-241.7h13.4l-0.6,3.2l-8.7,7.4h7.7l-0.7,3.8h-14.4l0.7-3.6l8.3-7.1h-6.4L1535.7-241.7z"/>
				<path class="st2" d="M1550.8-241.7h5.2l-0.4,2.1c0.9-0.9,1.8-1.5,2.6-1.9c0.8-0.4,1.8-0.6,2.9-0.6c1.2,0,2,0.2,2.6,0.6
					c0.6,0.4,1,1,1.3,1.8c1.1-0.9,2-1.6,2.8-1.9c0.8-0.3,1.7-0.5,2.8-0.5c1.6,0,2.7,0.5,3.4,1.4c0.7,0.9,0.8,2.4,0.5,4.3l-1.8,9.1
					h-5.6l1.6-8.2c0.1-0.7,0.1-1.1-0.1-1.5c-0.3-0.5-0.7-0.7-1.2-0.7c-0.7,0-1.2,0.2-1.7,0.7c-0.5,0.5-0.8,1.2-1,2.3l-1.5,7.5h-5.6
					l1.6-8c0.1-0.6,0.2-1.1,0.1-1.3c0-0.4-0.2-0.7-0.4-0.9c-0.2-0.2-0.6-0.3-1-0.3c-0.6,0-1.2,0.2-1.7,0.7c-0.5,0.5-0.9,1.3-1.1,2.4
					l-1.4,7.4h-5.6L1550.8-241.7z"/>
				<path class="st2" d="M1581.6-237.1l-5.2-0.6c0.4-0.9,0.8-1.7,1.3-2.2c0.5-0.5,1.1-1,1.9-1.4c0.6-0.3,1.3-0.5,2.2-0.7
					c0.9-0.2,1.9-0.2,2.9-0.2c1.7,0,3,0.1,3.9,0.3c1,0.2,1.7,0.6,2.3,1.2c0.4,0.4,0.7,1,0.8,1.7c0.1,0.7,0.1,1.5,0,2.1l-1.2,6.4
					c-0.1,0.7-0.2,1.2-0.2,1.6c0,0.4,0.1,0.9,0.3,1.5h-5.2c-0.1-0.4-0.2-0.7-0.2-0.9c0-0.2,0-0.5,0-0.9c-0.9,0.7-1.7,1.2-2.5,1.5
					c-1.1,0.4-2.2,0.6-3.5,0.6c-1.7,0-3-0.4-3.7-1.2c-0.7-0.8-1-1.8-0.8-3c0.2-1.1,0.7-2,1.5-2.7c0.8-0.7,2.1-1.2,3.9-1.6
					c2.2-0.4,3.6-0.7,4.2-0.9c0.7-0.2,1.3-0.4,2.1-0.7c0.1-0.7,0.1-1.2-0.1-1.4c-0.2-0.3-0.7-0.4-1.4-0.4c-0.9,0-1.6,0.1-2.1,0.4
					C1582.3-238.1,1582-237.7,1581.6-237.1z M1585.9-234.1c-0.8,0.3-1.7,0.5-2.5,0.7c-1.2,0.3-2,0.6-2.3,0.9c-0.4,0.3-0.6,0.6-0.7,1
					c-0.1,0.4,0,0.8,0.2,1.1c0.3,0.3,0.7,0.4,1.3,0.4c0.6,0,1.2-0.2,1.8-0.5s1-0.7,1.3-1.1c0.3-0.4,0.5-1,0.7-1.7L1585.9-234.1z"/>
				<path class="st2" d="M1595-241.7h5.2l-0.5,2.4c1-1,1.9-1.6,2.7-2.1c0.9-0.4,1.9-0.6,3-0.6c1.5,0,2.6,0.5,3.3,1.4
					c0.7,0.9,0.8,2.3,0.5,4.2l-1.8,9.2h-5.6l1.6-8c0.2-0.9,0.1-1.5-0.1-1.9c-0.3-0.4-0.7-0.6-1.3-0.6c-0.7,0-1.3,0.3-1.8,0.8
					c-0.5,0.5-0.9,1.4-1.2,2.7l-1.4,6.9h-5.5L1595-241.7z"/>
				<path class="st2" d="M1612.7-241.7h5.5l-2.8,14.5h-5.5L1612.7-241.7z"/>
			</g>
		</g>
	</g>
	<g>
		<g>
			<path class="st1" d="M239.9,70.9c-0.3,0.7,0.1,1.3,0.9,1.3h3.8h3.4c0.8,0,1.4-0.6,1.3-1.4l-0.8-9.3c0-0.7-0.1-2-0.2-2.8
				c0,0-0.2-4.5-0.2-7.3c-0.5,0-1.1,0.6-1.4,1.3l-2.2,5.9L239.9,70.9z M233.8,88.4c-0.8,0-1.6,0.6-1.9,1.3l-2.3,6
				c-0.3,0.7-1.1,1.3-1.8,1.3h-23.5c-0.8,0-1.1-0.6-0.8-1.3l33.3-65.7c0.3-0.7,1.3-1.2,2-1.2h5.9h18.8c0.8,0,1.5,0.6,1.6,1.4
				l13,65.5c0.2,0.8-0.3,1.4-1.1,1.4h-23.4c-0.8,0-1.5-0.6-1.6-1.4l-0.6-5.8c-0.1-0.8-0.8-1.4-1.6-1.4h-5.2H233.8z M356.4,69
				l0.3-1.6l5.9-37.3c0.2-0.8,0.9-1.4,1.6-1.4h22c0.7,0,1.3,0.6,1.1,1.4l-5.5,35.2c-0.2,0.8-0.3,2-0.4,2.8c0,0-1.2,8.6,5.4,8.6
				c6.6,0,7.5-4.7,8.4-10l5.8-36.6c0.2-0.8,0.9-1.4,1.6-1.4h22c0.8,0,1.3,0.6,1.1,1.4l-6,37.6c-0.1,0.8-0.3,2-0.6,3.5
				c0,0-3.2,27.6-35.8,26.9c-14.2-0.3-23.9-5.2-26.7-15.8C355.7,78.4,355.5,74.1,356.4,69z M356.7,30.4l-24.4,30.4
				c-0.4,0.6-0.6,1.6-0.3,2.3l16.8,32.5c0.3,0.7,0,1.3-0.8,1.3h-26c-0.8,0-1.6-0.6-1.9-1.3l-7.4-18.1c-0.3-0.7-0.9-1.8-1.2-2.5
				c0,0-2.2-4-2.2-6.7c-0.3,0-0.6,0.6-0.7,1.4L305,95.5c-0.1,0.8-0.8,1.4-1.5,1.4H282c-0.8,0-1.3-0.6-1.1-1.4l10.4-65.5
				c0.1-0.8,0.9-1.4,1.6-1.4h21.4c0.8,0,1.3,0.6,1.1,1.4l-4.7,26.9c-0.1,0.7-0.1,1.4,0.1,1.4c0.1,0,0.5-0.6,0.9-1.2
				c0,0,2.2-4.1,4-6.6l14.6-20.7c0.4-0.6,1.4-1.1,2.2-1.1h24.3c0.8,0,1,0.5,0.5,1.1L356.7,30.4z M388.3,10.5
				c-0.9,5.9-6.4,10.5-12.3,10.5c-5.8,0-9.8-4.7-8.9-10.5C368.1,4.7,373.6,0,379.4,0C385.3,0,389.2,4.7,388.3,10.5z M426.7,10.5
				c-1,5.9-6.5,10.5-12.3,10.5c-5.9,0-9.9-4.7-8.9-10.5C406.5,4.7,412,0,417.8,0C423.6,0,427.6,4.7,426.7,10.5z M32.6,46.6l-7.8,49
				c-0.1,0.8-0.9,1.4-1.6,1.4h-22c-0.7,0-1.2-0.6-1.1-1.4l10.4-65.5c0.1-0.8,0.9-1.4,1.6-1.4h20.6H34c0.8,0,1.3,0.6,1.2,1.4
				L32.6,46.6z M32.6,17.6c-2.3,2.2-5.3,3.5-8.4,3.5c-5.9,0-9.9-4.7-8.9-10.5C16.2,4.7,21.7,0,27.6,0c1.9,0,3.5,0.4,5,1.4
				c2.8,1.8,4.5,5.2,3.9,9.2C36,13.3,34.6,15.8,32.6,17.6z M31.1,96.9c-0.8,0-1.3-0.6-1.2-1.4l2.7-16.6l7.7-48.9
				c0.2-0.8,0.9-1.4,1.6-1.4h21c0.8,0,1.6,0.6,2,1.3l14.2,32.9c0.3,0.8,0.6,0.7,0.8-0.1L85,30.1c0.1-0.8,0.9-1.4,1.5-1.4H107h0.4
				c0.8,0,1.3,0.6,1.1,1.4l-1.6,10l-8.8,55.5c-0.1,0.8-0.9,1.4-1.6,1.5l-21-0.1c-0.8,0.1-1.6-0.5-2-1.2L59.4,63.6
				c-0.3-0.7-0.7-0.6-0.8,0.1l-5,31.9c-0.2,0.8-0.9,1.4-1.6,1.4H32.6H31.1z M159,96.9c-0.7,0-1.2-0.6-1.1-1.4l2.7-16.7l7.7-48.8
				c0.1-0.8,0.9-1.4,1.6-1.4h21.9c0.8,0,1.3,0.6,1.2,1.4l-10.4,65.5c-0.1,0.8-0.9,1.4-1.6,1.4h-20.5H159z M105.8,63.4
				c0.3-1.7,0.7-3.5,1.2-5.1c5.2-17.4,21.9-30.8,40.2-30.8c4.2,0,10.5,1.5,13.4,2.2c0.9,0.2,1.5,0.3,1.5,0.3c0.7,0.2,1.2,1,1.1,1.7
				l-2.6,20.3l-0.6,4.3c-3.4-3.7-7.9-6.9-13.5-6.9c-7.4,0-14.4,5.9-15.6,13.3c-1.2,7.5,4.3,13.3,11.7,13.3c5.7,0,10.6-2.4,15.3-6.3
				l-4.6,24.1c-0.1,0.8-0.9,1.5-1.6,1.6c0,0-6.2,2.3-16.8,2.4c-13.7,0.1-24.1-7.4-28-18.7C105.4,74.5,105,69.1,105.8,63.4z
				 M194.4,10.5c-0.9,5.9-6.5,10.5-12.3,10.5c-5.9,0-9.8-4.7-8.9-10.5C174.1,4.7,179.6,0,185.5,0C191.3,0,195.2,4.7,194.4,10.5z
				 M439,30c-4.1,0-7.3,3.3-7.3,7.3s3.3,7.3,7.3,7.3c4.1,0,7.3-3.3,7.3-7.3S443,30,439,30z M439,28.3c5,0,9.1,4.1,9.1,9.1
				c0,5-4.1,9.1-9.1,9.1c-5,0-9.1-4.1-9.1-9.1C429.9,32.3,434,28.3,439,28.3z M436.7,38.3l0,4H435v-9.8l5.3,0c0.9,0,1.7,0.2,2.3,0.6
				c0.7,0.6,1.1,1.3,1.1,2.2c0,0.6-0.2,1.2-0.5,1.7c-0.3,0.4-0.7,0.7-1.1,0.9l1.9,4.4l-1.8,0l-1.7-4L436.7,38.3z M441.9,35.3
				c0-0.5-0.2-0.8-0.5-1c-0.2-0.2-0.6-0.2-1.1-0.2h-3.5v2.7h3.4c0.7,0,1.1-0.2,1.4-0.4C441.8,36.1,441.9,35.7,441.9,35.3z"/>
		</g>
		<g>
			<g>
				<path class="st2" d="M91.9,112.4h5.9l-0.1,11.2l5.3-11.2h5.8l0.9,11.2l4.3-11.2h5.8l-8.3,20h-6l-1-12.6l-5.9,12.6h-6L91.9,112.4
					z"/>
				<path class="st2" d="M116.5,125.2c0.4-2.2,1.5-4,3.3-5.5c1.8-1.4,3.9-2.1,6.5-2.1c2.9,0,4.9,0.8,6.1,2.5c0.9,1.4,1.2,3,0.8,5
					c-0.4,2.2-1.5,4-3.3,5.5c-1.8,1.4-3.9,2.1-6.5,2.1c-2.3,0-4.1-0.6-5.3-1.8C116.6,129.5,116,127.6,116.5,125.2z M122.1,125.2
					c-0.3,1.3-0.2,2.2,0.2,2.9c0.4,0.6,1,0.9,1.8,0.9c0.8,0,1.5-0.3,2.1-0.9c0.6-0.6,1.1-1.6,1.3-2.9c0.2-1.3,0.2-2.2-0.2-2.8
					c-0.4-0.6-1-0.9-1.7-0.9c-0.8,0-1.5,0.3-2.2,0.9C122.8,123,122.3,123.9,122.1,125.2z"/>
				<path class="st2" d="M136.1,117.9h5.2l-0.5,2.4c0.7-1,1.4-1.7,2-2.1c0.6-0.4,1.3-0.6,2.1-0.6c0.8,0,1.7,0.3,2.5,0.8l-2.5,3.9
					c-0.6-0.3-1.1-0.4-1.5-0.4c-0.7,0-1.3,0.3-1.9,0.9c-0.7,0.8-1.3,2.4-1.8,4.7l-0.9,4.8h-5.6L136.1,117.9z"/>
				<path class="st2" d="M149.5,112.4h5.6l-3.9,20h-5.6L149.5,112.4z"/>
				<path class="st2" d="M172.7,112.4l-3.9,20h-5.2l0.4-2.1c-0.9,0.9-1.7,1.5-2.3,1.8c-0.9,0.4-1.8,0.6-2.8,0.6
					c-2,0-3.3-0.7-4.1-2.2c-0.7-1.5-0.9-3.3-0.5-5.5c0.5-2.4,1.4-4.2,2.8-5.5c1.4-1.3,3-1.9,4.8-1.9c0.9,0,1.6,0.1,2.3,0.4
					c0.6,0.3,1.2,0.7,1.6,1.3l1.3-6.9H172.7z M164.7,125.1c0.2-1.1,0.1-2-0.2-2.5c-0.4-0.6-0.9-0.8-1.7-0.8c-0.6,0-1.2,0.3-1.8,0.8
					c-0.5,0.5-0.9,1.4-1.2,2.7c-0.2,1.2-0.2,2,0.2,2.6c0.3,0.5,0.8,0.8,1.5,0.8c0.7,0,1.4-0.3,1.9-0.8
					C164.1,127.3,164.5,126.4,164.7,125.1z"/>
				<path class="st2" d="M174.4,112.1h5.9l-0.9,4.6c-0.3,1.7-0.9,3-1.8,4c-0.9,1-2.3,1.8-4.1,2.6l-0.8-2.4c1.1-0.5,2-1,2.5-1.5
					c0.5-0.5,0.8-1.1,1-1.7h-2.8L174.4,112.1z"/>
				<path class="st2" d="M176.8,128.4l5.6-0.5c0.1,0.7,0.3,1.1,0.7,1.4c0.4,0.3,0.9,0.4,1.6,0.4c0.7,0,1.4-0.2,1.8-0.5
					c0.4-0.2,0.6-0.5,0.6-0.9c0.1-0.4-0.1-0.7-0.4-0.9c-0.3-0.2-1-0.3-2.3-0.6c-1.9-0.3-3.1-0.6-3.8-0.9c-0.7-0.3-1.2-0.8-1.6-1.4
					c-0.4-0.7-0.5-1.5-0.3-2.3c0.2-1,0.6-1.8,1.3-2.5c0.7-0.7,1.5-1.2,2.6-1.5c1-0.3,2.4-0.5,4-0.5c1.7,0,3,0.1,3.7,0.4
					c0.8,0.3,1.4,0.7,1.8,1.2c0.4,0.6,0.8,1.3,0.9,2.2l-5.4,0.5c0-0.5-0.2-0.8-0.5-1c-0.4-0.3-0.9-0.4-1.5-0.4
					c-0.6,0-1.1,0.1-1.4,0.3c-0.3,0.2-0.5,0.5-0.6,0.8c-0.1,0.4,0.1,0.6,0.4,0.8c0.3,0.2,1.1,0.3,2.3,0.5c1.8,0.2,3.1,0.5,3.9,0.9
					c0.8,0.4,1.4,0.9,1.8,1.6c0.3,0.7,0.4,1.4,0.3,2.3c-0.2,0.8-0.6,1.6-1.2,2.4c-0.7,0.8-1.6,1.4-2.8,1.9c-1.2,0.5-2.7,0.7-4.6,0.7
					c-2.6,0-4.4-0.4-5.4-1.1C177.4,130.8,176.9,129.8,176.8,128.4z"/>
				<path class="st2" d="M205.4,112.4h11.5c1.9,0,3.3,0.5,4.2,1.4c0.8,1,1.1,2.1,0.9,3.5c-0.2,1.2-0.8,2.2-1.7,3
					c-0.6,0.6-1.4,1-2.4,1.3c1.4,0.3,2.3,0.9,2.8,1.8c0.5,0.8,0.6,1.9,0.4,3.2c-0.2,1-0.6,2-1.3,2.8c-0.6,0.8-1.4,1.5-2.4,2
					c-0.6,0.3-1.4,0.5-2.5,0.7c-1.4,0.2-2.4,0.3-2.8,0.3h-10.6L205.4,112.4z M208.6,128.1h3.1c1.1,0,1.8-0.2,2.4-0.6
					c0.5-0.4,0.8-0.9,0.9-1.5c0.1-0.6,0-1.1-0.4-1.4c-0.4-0.4-1.1-0.5-2.2-0.5h-3.1L208.6,128.1z M210.1,120.3h2.7
					c1,0,1.7-0.2,2.1-0.5c0.4-0.3,0.7-0.8,0.8-1.4c0.1-0.6,0-1-0.3-1.4c-0.3-0.3-0.9-0.5-1.9-0.5h-2.7L210.1,120.3z"/>
				<path class="st2" d="M228.7,122.6l-5.2-0.6c0.4-0.9,0.8-1.7,1.3-2.2c0.5-0.5,1.1-1,1.9-1.4c0.6-0.3,1.3-0.5,2.2-0.7
					c0.9-0.2,1.9-0.2,2.9-0.2c1.7,0,3,0.1,3.9,0.3c1,0.2,1.7,0.6,2.3,1.2c0.4,0.4,0.7,1,0.8,1.7c0.1,0.7,0.1,1.5,0,2.1l-1.2,6.4
					c-0.1,0.7-0.2,1.2-0.2,1.6c0,0.4,0.1,0.9,0.3,1.5h-5.2c-0.1-0.4-0.2-0.7-0.2-0.9c0-0.2,0-0.5,0-0.9c-0.9,0.7-1.7,1.2-2.5,1.5
					c-1.1,0.4-2.2,0.6-3.5,0.6c-1.7,0-3-0.4-3.7-1.2c-0.7-0.8-1-1.8-0.8-3c0.2-1.1,0.7-2,1.5-2.7c0.8-0.7,2.1-1.2,3.9-1.6
					c2.2-0.4,3.6-0.7,4.2-0.9c0.7-0.2,1.3-0.4,2.1-0.7c0.1-0.7,0.1-1.2-0.1-1.4c-0.2-0.3-0.7-0.4-1.4-0.4c-0.9,0-1.6,0.1-2.1,0.4
					C229.4,121.6,229,122,228.7,122.6z M232.9,125.5c-0.8,0.3-1.7,0.5-2.5,0.7c-1.2,0.3-2,0.6-2.3,0.9c-0.4,0.3-0.6,0.6-0.7,1
					c-0.1,0.4,0,0.8,0.2,1.1c0.3,0.3,0.7,0.4,1.3,0.4c0.6,0,1.2-0.2,1.8-0.5c0.6-0.3,1-0.7,1.3-1.1c0.3-0.4,0.5-1,0.7-1.7
					L232.9,125.5z"/>
				<path class="st2" d="M249.3,112.4l-1.1,5.5h3l-0.8,4.1h-3l-1,5.1c-0.1,0.6-0.1,1-0.1,1.2c0.1,0.3,0.4,0.5,0.9,0.5
					c0.4,0,1-0.1,1.8-0.4l-0.3,3.8c-1.4,0.3-2.7,0.4-3.9,0.4c-1.4,0-2.4-0.2-2.9-0.5c-0.6-0.4-1-0.9-1.1-1.6
					c-0.2-0.7-0.1-1.9,0.2-3.5l1-5.1h-2l0.8-4.1h2l0.5-2.7L249.3,112.4z"/>
				<path class="st2" d="M260.5,112.4l-1.1,5.5h3l-0.8,4.1h-3l-1,5.1c-0.1,0.6-0.1,1-0.1,1.2c0.1,0.3,0.4,0.5,0.9,0.5
					c0.4,0,1-0.1,1.8-0.4l-0.3,3.8c-1.4,0.3-2.7,0.4-3.9,0.4c-1.4,0-2.4-0.2-2.9-0.5c-0.6-0.4-1-0.9-1.1-1.6
					c-0.2-0.7-0.1-1.9,0.2-3.5l1-5.1h-2l0.8-4.1h2l0.5-2.7L260.5,112.4z"/>
				<path class="st2" d="M278.4,126.5h-11.1c-0.1,0.9,0,1.6,0.3,2c0.4,0.6,1.1,0.9,1.9,0.9c0.5,0,1.1-0.1,1.6-0.4
					c0.3-0.2,0.7-0.5,1.1-0.9l5.4,0.5c-1.1,1.5-2.3,2.5-3.6,3.1c-1.3,0.6-3.1,0.9-5.3,0.9c-1.9,0-3.4-0.3-4.4-0.8
					c-1-0.5-1.7-1.4-2.2-2.6c-0.5-1.2-0.6-2.6-0.3-4.1c0.4-2.3,1.5-4.1,3.2-5.5c1.7-1.4,3.9-2.1,6.4-2.1c2.1,0,3.6,0.3,4.7,0.9
					c1.1,0.6,1.8,1.5,2.2,2.7c0.4,1.2,0.4,2.7,0,4.6L278.4,126.5z M273.3,123.9c0.1-1.1,0-1.8-0.4-2.3c-0.4-0.5-0.9-0.7-1.7-0.7
					c-0.9,0-1.7,0.3-2.3,1c-0.4,0.4-0.8,1.1-1,1.9H273.3z"/>
				<path class="st2" d="M281.6,117.9h5.2l-0.5,2.4c0.7-1,1.4-1.7,2-2.1c0.6-0.4,1.3-0.6,2.1-0.6c0.8,0,1.7,0.3,2.5,0.8l-2.5,3.9
					c-0.6-0.3-1.1-0.4-1.5-0.4c-0.7,0-1.3,0.3-1.9,0.9c-0.7,0.8-1.3,2.4-1.8,4.7l-0.9,4.8h-5.6L281.6,117.9z"/>
				<path class="st2" d="M292.8,117.9h5.8l1.1,9.6l4.6-9.6h5.5l-8.8,15.4c-1,1.8-1.9,3-2.7,3.6c-1.1,0.9-2.7,1.3-4.7,1.3
					c-0.8,0-2-0.1-3.6-0.3l0.3-3.9c0.7,0.3,1.6,0.4,2.6,0.4c0.7,0,1.2-0.2,1.7-0.4c0.5-0.3,0.9-0.8,1.3-1.6L292.8,117.9z"/>
				<path class="st2" d="M319.9,112.4h16.5l-0.8,4.3h-10.3l-0.6,3.2h9.6l-0.8,4.1h-9.6l-0.8,3.9h10.6l-0.9,4.5H316L319.9,112.4z"/>
				<path class="st2" d="M336.3,117.9h6.6l1.5,4l3.5-4h6.1l-6.3,6.9l3.8,7.6H345l-1.8-4.7l-4,4.7h-6l6.7-7.6L336.3,117.9z"/>
				<path class="st2" d="M351.2,137.9l3.9-20h5.2l-0.4,2.1c0.9-0.9,1.7-1.5,2.3-1.8c0.9-0.4,1.8-0.6,2.8-0.6c1.9,0,3.3,0.7,4.1,2.2
					c0.8,1.5,0.9,3.3,0.5,5.5c-0.5,2.4-1.4,4.2-2.8,5.5c-1.4,1.3-3,1.9-4.7,1.9c-0.9,0-1.6-0.1-2.3-0.4c-0.6-0.3-1.2-0.7-1.6-1.3
					l-1.3,6.9H351.2z M359.2,125.2c-0.2,1.1-0.1,2,0.2,2.5c0.4,0.6,0.9,0.8,1.7,0.8c0.6,0,1.2-0.3,1.8-0.8c0.5-0.5,0.9-1.4,1.2-2.7
					c0.2-1.2,0.2-2-0.2-2.6c-0.3-0.5-0.8-0.8-1.5-0.8c-0.7,0-1.4,0.3-1.9,0.8C359.8,123.1,359.4,124,359.2,125.2z"/>
				<path class="st2" d="M386.9,126.5h-11.1c-0.1,0.9,0,1.6,0.3,2c0.4,0.6,1.1,0.9,1.9,0.9c0.5,0,1.1-0.1,1.6-0.4
					c0.3-0.2,0.7-0.5,1.1-0.9l5.4,0.5c-1.1,1.5-2.3,2.5-3.6,3.1c-1.3,0.6-3.1,0.9-5.3,0.9c-1.9,0-3.4-0.3-4.4-0.8
					c-1-0.5-1.7-1.4-2.2-2.6c-0.5-1.2-0.6-2.6-0.3-4.1c0.4-2.3,1.5-4.1,3.2-5.5c1.7-1.4,3.9-2.1,6.4-2.1c2.1,0,3.6,0.3,4.7,0.9
					c1.1,0.6,1.8,1.5,2.2,2.7c0.4,1.2,0.4,2.7,0,4.6L386.9,126.5z M381.8,123.9c0.1-1.1,0-1.8-0.4-2.3c-0.4-0.5-0.9-0.7-1.7-0.7
					c-0.9,0-1.7,0.3-2.3,1c-0.4,0.4-0.8,1.1-1,1.9H381.8z"/>
				<path class="st2" d="M390,117.9h5.2l-0.5,2.4c0.7-1,1.4-1.7,2-2.1c0.6-0.4,1.3-0.6,2.1-0.6c0.8,0,1.7,0.3,2.5,0.8l-2.5,3.9
					c-0.6-0.3-1.1-0.4-1.5-0.4c-0.7,0-1.3,0.3-1.9,0.9c-0.7,0.8-1.3,2.4-1.8,4.7l-0.9,4.8h-5.6L390,117.9z"/>
				<path class="st2" d="M410.4,112.4l-1.1,5.5h3l-0.8,4.1h-3l-1,5.1c-0.1,0.6-0.1,1-0.1,1.2c0.1,0.3,0.4,0.5,0.9,0.5
					c0.4,0,1-0.1,1.8-0.4l-0.3,3.8c-1.4,0.3-2.7,0.4-3.9,0.4c-1.4,0-2.4-0.2-2.9-0.5c-0.6-0.4-1-0.9-1.1-1.6
					c-0.2-0.7-0.1-1.9,0.2-3.5l1-5.1h-2l0.8-4.1h2l0.5-2.7L410.4,112.4z"/>
			</g>
		</g>
	</g>
	<g>
		<path class="st0" d="M1816.5-380.3c0-4.2,3.4-7.6,7.6-7.6h289.8c4.2,0,7.6,3.4,7.6,7.6v166.8c0,4.2-3.4,7.6-7.6,7.6h-289.8
			c-4.2,0-7.6-3.4-7.6-7.6V-380.3z"/>
		<g>
			<path class="st1" d="M1905.2-313.1l-7.8,49c-0.1,0.8-0.9,1.4-1.6,1.4h-22c-0.7,0-1.2-0.6-1.1-1.4l10.4-65.5
				c0.1-0.8,0.9-1.4,1.6-1.4h20.6h1.4c0.8,0,1.3,0.6,1.2,1.4L1905.2-313.1z"/>
			<path class="st1" d="M1905.2-342.1c-2.3,2.2-5.3,3.5-8.4,3.5c-5.9,0-9.9-4.7-8.9-10.5c0.9-5.9,6.4-10.5,12.3-10.5
				c1.9,0,3.5,0.4,5,1.4c2.8,1.8,4.5,5.2,3.9,9.2C1908.7-346.4,1907.2-343.9,1905.2-342.1z"/>
			<path class="st1" d="M1903.7-262.8c-0.8,0-1.3-0.6-1.2-1.4l2.7-16.6l7.7-48.9c0.2-0.8,0.9-1.4,1.6-1.4h21c0.8,0,1.6,0.6,2,1.3
				l14.2,32.9c0.3,0.8,0.6,0.7,0.8-0.1l5.2-32.7c0.1-0.8,0.9-1.4,1.5-1.4h20.6h0.4c0.8,0,1.3,0.6,1.1,1.4l-1.6,10l-8.8,55.5
				c-0.1,0.8-0.9,1.4-1.6,1.5l-21-0.1c-0.8,0.1-1.6-0.5-2-1.2l-14.3-32.1c-0.3-0.7-0.7-0.6-0.8,0.1l-5,31.9
				c-0.2,0.8-0.9,1.4-1.6,1.4h-19.4H1903.7z"/>
			<path class="st1" d="M2031.7-262.8c-0.7,0-1.2-0.6-1.1-1.4l2.7-16.7l7.7-48.8c0.1-0.8,0.9-1.4,1.6-1.4h21.9
				c0.8,0,1.3,0.6,1.2,1.4l-10.4,65.5c-0.1,0.8-0.9,1.4-1.6,1.4h-20.5H2031.7z"/>
			<path class="st1" d="M1978.4-296.3c0.3-1.7,0.7-3.5,1.2-5.1c5.2-17.4,21.9-30.8,40.2-30.8c4.2,0,10.5,1.5,13.4,2.2
				c0.9,0.2,1.5,0.3,1.5,0.3c0.7,0.2,1.2,1,1.1,1.7l-2.6,20.3l-0.6,4.3c-3.4-3.7-7.9-6.9-13.5-6.9c-7.4,0-14.4,5.9-15.6,13.3
				c-1.2,7.5,4.3,13.3,11.7,13.3c5.7,0,10.6-2.4,15.3-6.3l-4.6,24.1c-0.1,0.8-0.9,1.5-1.6,1.6c0,0-6.2,2.3-16.8,2.4
				c-13.7,0.1-24.1-7.4-28-18.7C1978-285.2,1977.6-290.6,1978.4-296.3z"/>
			<path class="st1" d="M2067-349.1c-0.9,5.9-6.5,10.5-12.3,10.5c-5.9,0-9.8-4.7-8.9-10.5c0.9-5.9,6.4-10.5,12.3-10.5
				C2063.9-359.7,2067.9-355,2067-349.1z"/>
			<path class="st1" d="M2082-321.8c0.4-0.2,0.8-0.5,1.1-0.9c0.3-0.5,0.5-1,0.5-1.7c0-0.9-0.4-1.7-1.1-2.2c-0.6-0.4-1.3-0.6-2.3-0.6
				l-5.3,0v9.8h1.7l0-4l3.6,0l1.7,4l1.8,0L2082-321.8z M2081.5-323.3c-0.2,0.3-0.7,0.4-1.4,0.4h-3.4v-2.7h3.5c0.5,0,0.9,0.1,1.1,0.2
				c0.4,0.2,0.5,0.6,0.5,1C2081.9-323.9,2081.8-323.6,2081.5-323.3z M2079-331.4c-5,0-9.1,4.1-9.1,9.1c0,5,4.1,9.1,9.1,9.1
				c5,0,9.1-4.1,9.1-9.1C2088.1-327.3,2084-331.4,2079-331.4z M2079-315c-4.1,0-7.3-3.3-7.3-7.3s3.3-7.3,7.3-7.3
				c4.1,0,7.3,3.3,7.3,7.3S2083-315,2079-315z"/>
		</g>
		<g>
			<path class="st2" d="M1852.3-244h6.8c1.3,0,2.4,0.2,3.1,0.5c0.8,0.4,1.3,0.9,1.7,1.6c0.4,0.7,0.6,1.5,0.7,2.4
				c0.1,0.9,0,1.9-0.2,2.9c-0.3,1.6-0.7,2.8-1.3,3.7c-0.5,0.9-1.2,1.6-1.9,2.2c-0.8,0.6-1.5,1-2.3,1.2c-1.1,0.3-2,0.4-2.8,0.4h-6.8
				L1852.3-244z M1856.2-240.7l-1.6,8.1h1.1c1,0,1.7-0.1,2.1-0.3c0.4-0.2,0.8-0.6,1.2-1.1c0.3-0.5,0.6-1.4,0.8-2.6
				c0.3-1.6,0.3-2.6-0.1-3.2c-0.4-0.6-1.2-0.9-2.4-0.9H1856.2z"/>
			<path class="st2" d="M1875.1-229.3h-3.8l0.3-1.7c-0.7,0.7-1.4,1.2-2,1.5c-0.6,0.3-1.4,0.5-2.2,0.5c-1.1,0-1.9-0.3-2.5-1
				c-0.5-0.7-0.6-1.7-0.4-3.1l1.3-6.8h4.1l-1.1,5.9c-0.1,0.7-0.1,1.1,0.1,1.4c0.2,0.3,0.5,0.4,1,0.4c0.5,0,0.9-0.2,1.3-0.6
				c0.4-0.4,0.7-1,0.9-2l1-5.1h4.1L1875.1-229.3z M1868.9-243.8h2.6l-0.5,2.5h-2.6L1868.9-243.8z M1873.1-243.8h2.6l-0.5,2.5h-2.6
				L1873.1-243.8z"/>
			<path class="st2" d="M1878.4-240h3.8l-0.3,1.7c0.7-0.7,1.4-1.2,2-1.5c0.6-0.3,1.4-0.5,2.2-0.5c1.1,0,2,0.3,2.5,1
				c0.5,0.7,0.6,1.7,0.4,3.1l-1.3,6.8h-4.1l1.1-5.9c0.1-0.7,0.1-1.1-0.1-1.4c-0.2-0.3-0.5-0.4-1-0.4c-0.5,0-0.9,0.2-1.3,0.6
				c-0.4,0.4-0.7,1-0.9,2l-1,5.1h-4.1L1878.4-240z"/>
			<path class="st2" d="M1889.8-240h4.3l0.8,7.1l3.4-7.1h4l-6.5,11.4c-0.7,1.3-1.4,2.2-2,2.6c-0.8,0.6-2,1-3.4,1
				c-0.6,0-1.5-0.1-2.7-0.2l0.2-2.9c0.6,0.2,1.2,0.3,1.9,0.3c0.5,0,0.9-0.1,1.2-0.3c0.3-0.2,0.7-0.6,1-1.2L1889.8-240z"/>
			<path class="st2" d="M1905-236.5l-3.8-0.4c0.3-0.7,0.6-1.2,1-1.6c0.4-0.4,0.8-0.7,1.4-1c0.4-0.2,1-0.4,1.6-0.5
				c0.7-0.1,1.4-0.2,2.2-0.2c1.2,0,2.2,0.1,2.9,0.2c0.7,0.1,1.3,0.4,1.7,0.9c0.3,0.3,0.5,0.7,0.6,1.3c0.1,0.6,0.1,1.1,0,1.6
				l-0.9,4.7c-0.1,0.5-0.1,0.9-0.1,1.2c0,0.3,0.1,0.6,0.2,1.1h-3.8c-0.1-0.3-0.2-0.5-0.2-0.6c0-0.1,0-0.4,0-0.7
				c-0.6,0.5-1.2,0.9-1.8,1.1c-0.8,0.3-1.7,0.4-2.6,0.4c-1.3,0-2.2-0.3-2.7-0.9c-0.5-0.6-0.7-1.3-0.6-2.2c0.2-0.8,0.5-1.5,1.1-2
				c0.6-0.5,1.5-0.9,2.9-1.2c1.6-0.3,2.6-0.5,3.1-0.6c0.5-0.1,1-0.3,1.5-0.5c0.1-0.5,0.1-0.9-0.1-1.1c-0.2-0.2-0.5-0.3-1-0.3
				c-0.7,0-1.2,0.1-1.6,0.3C1905.5-237.3,1905.3-237,1905-236.5z M1908.2-234.4c-0.6,0.2-1.2,0.4-1.9,0.5c-0.9,0.2-1.4,0.4-1.7,0.7
				c-0.3,0.2-0.4,0.5-0.5,0.8c-0.1,0.3,0,0.6,0.2,0.8c0.2,0.2,0.5,0.3,0.9,0.3c0.5,0,0.9-0.1,1.3-0.3c0.4-0.2,0.8-0.5,1-0.8
				c0.2-0.3,0.4-0.7,0.5-1.2L1908.2-234.4z"/>
			<path class="st2" d="M1914.5-240h3.8l-0.3,1.7c0.7-0.7,1.4-1.2,2-1.5c0.6-0.3,1.4-0.5,2.2-0.5c1.1,0,2,0.3,2.5,1
				c0.5,0.7,0.6,1.7,0.4,3.1l-1.3,6.8h-4.1l1.1-5.9c0.1-0.7,0.1-1.1-0.1-1.4c-0.2-0.3-0.5-0.4-1-0.4c-0.5,0-0.9,0.2-1.3,0.6
				c-0.4,0.4-0.7,1-0.9,2l-1,5.1h-4.1L1914.5-240z"/>
			<path class="st2" d="M1927.1-240h4.1l-2.1,10.7h-4.1L1927.1-240z"/>
			<path class="st2" d="M1932.6-240h3.8l-0.3,1.7c0.7-0.7,1.4-1.2,2-1.5c0.6-0.3,1.4-0.5,2.2-0.5c1.1,0,2,0.3,2.5,1
				c0.5,0.7,0.6,1.7,0.4,3.1l-1.3,6.8h-4.1l1.1-5.9c0.1-0.7,0.1-1.1-0.1-1.4c-0.2-0.3-0.5-0.4-1-0.4c-0.5,0-0.9,0.2-1.3,0.6
				c-0.4,0.4-0.7,1-0.9,2l-1,5.1h-4.1L1932.6-240z"/>
			<path class="st2" d="M1951.8-244h12.2l-0.6,3.2h-7.6l-0.5,2.3h7.1l-0.6,3h-7.1l-0.6,2.9h7.9l-0.7,3.3h-12.4L1951.8-244z"/>
			<path class="st2" d="M1964.4-240h3.8l-0.3,1.7c0.7-0.7,1.4-1.2,2-1.5c0.6-0.3,1.4-0.5,2.2-0.5c1.1,0,2,0.3,2.5,1
				c0.5,0.7,0.6,1.7,0.4,3.1l-1.3,6.8h-4.1l1.1-5.9c0.1-0.7,0.1-1.1-0.1-1.4c-0.2-0.3-0.5-0.4-1-0.4c-0.5,0-0.9,0.2-1.3,0.6
				c-0.4,0.4-0.7,1-0.9,2l-1,5.1h-4.1L1964.4-240z"/>
			<path class="st2" d="M1987.5-233.6h-8.2c-0.1,0.7,0,1.1,0.2,1.5c0.3,0.5,0.8,0.7,1.4,0.7c0.4,0,0.8-0.1,1.2-0.3
				c0.2-0.1,0.5-0.4,0.8-0.7l4,0.4c-0.8,1.1-1.7,1.8-2.7,2.3c-1,0.5-2.3,0.7-3.9,0.7c-1.4,0-2.5-0.2-3.2-0.6c-0.7-0.4-1.3-1-1.6-1.9
				c-0.4-0.9-0.4-1.9-0.2-3.1c0.3-1.7,1.1-3,2.4-4.1c1.3-1,2.9-1.5,4.7-1.5c1.5,0,2.7,0.2,3.5,0.7c0.8,0.5,1.3,1.1,1.6,2
				c0.3,0.9,0.3,2,0,3.4L1987.5-233.6z M1983.8-235.6c0.1-0.8,0-1.4-0.3-1.7c-0.3-0.3-0.7-0.5-1.3-0.5c-0.7,0-1.2,0.3-1.7,0.8
				c-0.3,0.3-0.6,0.8-0.8,1.4H1983.8z"/>
			<path class="st2" d="M1989.5-240h3.8l-0.3,1.8c0.5-0.8,1-1.3,1.4-1.6c0.4-0.3,1-0.4,1.5-0.4c0.6,0,1.2,0.2,1.9,0.6l-1.8,2.9
				c-0.4-0.2-0.8-0.3-1.1-0.3c-0.5,0-1,0.2-1.4,0.7c-0.5,0.6-1,1.8-1.3,3.5l-0.7,3.6h-4.1L1989.5-240z"/>
			<path class="st2" d="M1998.4-240h4.1l-2,10.4c-0.3,1.3-0.5,2.3-0.8,2.8c-0.3,0.5-0.7,1-1.3,1.3c-0.6,0.3-1.4,0.5-2.3,0.5
				c-0.8,0-1.8-0.1-2.9-0.4l1.2-3c0.3,0.1,0.6,0.1,0.7,0.1c0.3,0,0.6-0.1,0.9-0.4c0.2-0.2,0.4-0.7,0.5-1.4L1998.4-240z M1999.2-244
				h4.1l-0.5,2.8h-4.1L1999.2-244z"/>
			<path class="st2" d="M2004-240h4.1l-2.1,10.7h-4.1L2004-240z M2004.8-244h4.1l-0.5,2.8h-4.1L2004.8-244z"/>
			<path class="st2" d="M2025.8-244h4.6l-1.7,8.8c-0.2,0.9-0.5,1.7-0.9,2.5c-0.4,0.8-1,1.5-1.7,2c-0.7,0.6-1.4,1-2.1,1.2
				c-1,0.3-2,0.5-3.3,0.5c-0.7,0-1.5,0-2.3-0.2c-0.8-0.1-1.5-0.3-2-0.6c-0.5-0.3-1-0.7-1.3-1.3c-0.4-0.5-0.6-1.1-0.6-1.7
				c-0.1-0.9-0.1-1.8,0.1-2.5l1.7-8.8h4.5l-1.8,9c-0.2,0.8-0.1,1.4,0.3,1.9c0.4,0.5,0.9,0.7,1.7,0.7c0.8,0,1.4-0.2,2-0.7
				s0.9-1.1,1-1.9L2025.8-244z"/>
			<path class="st2" d="M2030.6-240h9.9l-0.5,2.4l-6.5,5.5h5.7l-0.5,2.8h-10.6l0.5-2.7l6.1-5.2h-4.7L2030.6-240z"/>
			<path class="st2" d="M2041.3-240h3.8l-0.3,1.6c0.7-0.7,1.3-1.1,1.9-1.4c0.6-0.3,1.3-0.4,2.1-0.4c0.9,0,1.5,0.2,1.9,0.5
				c0.4,0.3,0.8,0.8,1,1.3c0.8-0.7,1.5-1.2,2-1.4c0.6-0.3,1.3-0.4,2-0.4c1.1,0,2,0.3,2.5,1c0.5,0.7,0.6,1.7,0.3,3.2l-1.3,6.7h-4.1
				l1.2-6.1c0.1-0.5,0.1-0.8-0.1-1.1c-0.2-0.4-0.5-0.6-0.9-0.6c-0.5,0-0.9,0.2-1.3,0.5c-0.4,0.3-0.6,0.9-0.8,1.7l-1.1,5.5h-4.1
				l1.1-5.9c0.1-0.5,0.1-0.8,0.1-1c0-0.3-0.1-0.5-0.3-0.6c-0.2-0.2-0.4-0.2-0.7-0.2c-0.5,0-0.9,0.2-1.3,0.5
				c-0.4,0.4-0.6,0.9-0.8,1.8l-1.1,5.5h-4.1L2041.3-240z"/>
			<path class="st2" d="M2063.7-236.5l-3.8-0.4c0.3-0.7,0.6-1.2,1-1.6c0.4-0.4,0.8-0.7,1.4-1c0.4-0.2,1-0.4,1.6-0.5
				c0.7-0.1,1.4-0.2,2.2-0.2c1.2,0,2.2,0.1,2.9,0.2c0.7,0.1,1.3,0.4,1.7,0.9c0.3,0.3,0.5,0.7,0.6,1.3c0.1,0.6,0.1,1.1,0,1.6
				l-0.9,4.7c-0.1,0.5-0.1,0.9-0.1,1.2c0,0.3,0.1,0.6,0.2,1.1h-3.8c-0.1-0.3-0.2-0.5-0.2-0.6c0-0.1,0-0.4,0-0.7
				c-0.6,0.5-1.2,0.9-1.8,1.1c-0.8,0.3-1.7,0.4-2.6,0.4c-1.3,0-2.2-0.3-2.7-0.9c-0.5-0.6-0.7-1.3-0.6-2.2c0.2-0.8,0.5-1.5,1.1-2
				c0.6-0.5,1.5-0.9,2.9-1.2c1.6-0.3,2.6-0.5,3.1-0.6c0.5-0.1,1-0.3,1.5-0.5c0.1-0.5,0.1-0.9-0.1-1.1c-0.2-0.2-0.5-0.3-1-0.3
				c-0.7,0-1.2,0.1-1.6,0.3C2064.2-237.3,2063.9-237,2063.7-236.5z M2066.8-234.4c-0.6,0.2-1.2,0.4-1.9,0.5
				c-0.9,0.2-1.4,0.4-1.7,0.7c-0.3,0.2-0.4,0.5-0.5,0.8c-0.1,0.3,0,0.6,0.2,0.8c0.2,0.2,0.5,0.3,0.9,0.3c0.5,0,0.9-0.1,1.3-0.3
				c0.4-0.2,0.8-0.5,1-0.8c0.2-0.3,0.4-0.7,0.5-1.2L2066.8-234.4z"/>
			<path class="st2" d="M2073.1-240h3.8l-0.3,1.7c0.7-0.7,1.4-1.2,2-1.5c0.6-0.3,1.4-0.5,2.2-0.5c1.1,0,2,0.3,2.5,1
				c0.5,0.7,0.6,1.7,0.4,3.1l-1.3,6.8h-4.1l1.1-5.9c0.1-0.7,0.1-1.1-0.1-1.4c-0.2-0.3-0.5-0.4-1-0.4c-0.5,0-0.9,0.2-1.3,0.6
				c-0.4,0.4-0.7,1-0.9,2l-1,5.1h-4.1L2073.1-240z"/>
			<path class="st2" d="M2085.8-240h4.1l-2.1,10.7h-4.1L2085.8-240z"/>
		</g>
	</g>
	<g>
		<path class="st0" d="M1816.5-138.3c0-4.2,3.4-7.6,7.6-7.6h289.8c4.2,0,7.6,3.4,7.6,7.6V28.5c0,4.2-3.4,7.6-7.6,7.6h-289.8
			c-4.2,0-7.6-3.4-7.6-7.6V-138.3z"/>
		<g>
			<path class="st1" d="M1905.2-71.1l-7.8,49c-0.1,0.8-0.9,1.4-1.6,1.4h-22c-0.7,0-1.2-0.6-1.1-1.4l10.4-65.5
				c0.1-0.8,0.9-1.4,1.6-1.4h20.6h1.4c0.8,0,1.3,0.6,1.2,1.4L1905.2-71.1z"/>
			<path class="st1" d="M1905.2-100.1c-2.3,2.2-5.3,3.5-8.4,3.5c-5.9,0-9.9-4.7-8.9-10.5c0.9-5.9,6.4-10.5,12.3-10.5
				c1.9,0,3.5,0.4,5,1.4c2.8,1.8,4.5,5.2,3.9,9.2C1908.7-104.4,1907.2-101.9,1905.2-100.1z"/>
			<path class="st1" d="M1903.7-20.8c-0.8,0-1.3-0.6-1.2-1.4l2.7-16.6l7.7-48.9c0.2-0.8,0.9-1.4,1.6-1.4h21c0.8,0,1.6,0.6,2,1.3
				l14.2,32.9c0.3,0.8,0.6,0.7,0.8-0.1l5.2-32.7c0.1-0.8,0.9-1.4,1.5-1.4h20.6h0.4c0.8,0,1.3,0.6,1.1,1.4l-1.6,10l-8.8,55.5
				c-0.1,0.8-0.9,1.4-1.6,1.5l-21-0.1c-0.8,0.1-1.6-0.5-2-1.2l-14.3-32.1c-0.3-0.7-0.7-0.6-0.8,0.1l-5,31.9
				c-0.2,0.8-0.9,1.4-1.6,1.4h-19.4H1903.7z"/>
			<path class="st1" d="M2031.7-20.8c-0.7,0-1.2-0.6-1.1-1.4l2.7-16.7l7.7-48.8c0.1-0.8,0.9-1.4,1.6-1.4h21.9c0.8,0,1.3,0.6,1.2,1.4
				l-10.4,65.5c-0.1,0.8-0.9,1.4-1.6,1.4h-20.5H2031.7z"/>
			<path class="st1" d="M1978.4-54.3c0.3-1.7,0.7-3.5,1.2-5.1c5.2-17.4,21.9-30.8,40.2-30.8c4.2,0,10.5,1.5,13.4,2.2
				c0.9,0.2,1.5,0.3,1.5,0.3c0.7,0.2,1.2,1,1.1,1.7l-2.6,20.3l-0.6,4.3c-3.4-3.7-7.9-6.9-13.5-6.9c-7.4,0-14.4,5.9-15.6,13.3
				c-1.2,7.5,4.3,13.3,11.7,13.3c5.7,0,10.6-2.4,15.3-6.3l-4.6,24.1c-0.1,0.8-0.9,1.5-1.6,1.6c0,0-6.2,2.3-16.8,2.4
				c-13.7,0.1-24.1-7.4-28-18.7C1978-43.2,1977.6-48.6,1978.4-54.3z"/>
			<path class="st1" d="M2067-107.1c-0.9,5.9-6.5,10.5-12.3,10.5c-5.9,0-9.8-4.7-8.9-10.5c0.9-5.9,6.4-10.5,12.3-10.5
				C2063.9-117.7,2067.9-113,2067-107.1z"/>
			<path class="st1" d="M2082-79.8c0.4-0.2,0.8-0.5,1.1-0.9c0.3-0.5,0.5-1,0.5-1.7c0-0.9-0.4-1.7-1.1-2.2c-0.6-0.4-1.3-0.6-2.3-0.6
				l-5.3,0v9.8h1.7l0-4l3.6,0l1.7,4l1.8,0L2082-79.8z M2081.5-81.3c-0.2,0.3-0.7,0.4-1.4,0.4h-3.4v-2.7h3.5c0.5,0,0.9,0.1,1.1,0.2
				c0.4,0.2,0.5,0.6,0.5,1C2081.9-81.9,2081.8-81.6,2081.5-81.3z M2079-89.4c-5,0-9.1,4.1-9.1,9.1c0,5,4.1,9.1,9.1,9.1
				c5,0,9.1-4.1,9.1-9.1C2088.1-85.3,2084-89.4,2079-89.4z M2079-73c-4.1,0-7.3-3.3-7.3-7.3c0-4.1,3.3-7.3,7.3-7.3
				c4.1,0,7.3,3.3,7.3,7.3C2086.3-76.3,2083-73,2079-73z"/>
		</g>
		<g>
			<g>
				<path class="st2" d="M1856.2-2h4.3l-0.1,8.3l3.9-8.3h4.3l0.7,8.2l3.2-8.2h4.3l-6.1,14.8h-4.5l-0.8-9.3l-4.4,9.3h-4.5L1856.2-2z"
					/>
				<path class="st2" d="M1873.9,7.4c0.3-1.6,1.1-3,2.4-4c1.3-1.1,2.9-1.6,4.8-1.6c2.1,0,3.6,0.6,4.5,1.9c0.7,1,0.9,2.2,0.6,3.7
					c-0.3,1.6-1.1,3-2.4,4s-2.9,1.6-4.8,1.6c-1.7,0-3-0.4-3.9-1.3C1874,10.6,1873.6,9.2,1873.9,7.4z M1878,7.4
					c-0.2,1-0.1,1.7,0.2,2.1c0.3,0.5,0.7,0.7,1.3,0.7c0.6,0,1.1-0.2,1.6-0.7c0.5-0.4,0.8-1.2,1-2.2c0.2-0.9,0.1-1.6-0.2-2.1
					c-0.3-0.5-0.7-0.7-1.3-0.7c-0.6,0-1.1,0.2-1.6,0.7C1878.6,5.8,1878.2,6.5,1878,7.4z"/>
				<path class="st2" d="M1888,2h3.8l-0.3,1.8c0.5-0.8,1-1.3,1.4-1.6c0.4-0.3,1-0.4,1.5-0.4c0.6,0,1.2,0.2,1.9,0.6l-1.8,2.9
					c-0.4-0.2-0.8-0.3-1.1-0.3c-0.5,0-1,0.2-1.4,0.7c-0.5,0.6-1,1.8-1.3,3.5l-0.7,3.6h-4.1L1888,2z"/>
				<path class="st2" d="M1897.5-2h4.1l-2.9,14.8h-4.1L1897.5-2z"/>
				<path class="st2" d="M1914.3-2l-2.9,14.8h-3.8l0.3-1.6c-0.7,0.7-1.2,1.1-1.7,1.4c-0.7,0.3-1.3,0.5-2.1,0.5c-1.5,0-2.5-0.6-3-1.7
					c-0.6-1.1-0.7-2.5-0.4-4c0.3-1.8,1-3.1,2.1-4.1c1-0.9,2.2-1.4,3.5-1.4c0.6,0,1.2,0.1,1.7,0.3c0.5,0.2,0.9,0.5,1.2,1l1-5.1
					H1914.3z M1908.3,7.3c0.2-0.8,0.1-1.5-0.2-1.9c-0.3-0.4-0.7-0.6-1.2-0.6c-0.5,0-0.9,0.2-1.3,0.6c-0.4,0.4-0.7,1.1-0.9,2
					c-0.2,0.9-0.1,1.5,0.1,1.9c0.3,0.4,0.6,0.6,1.1,0.6c0.5,0,1-0.2,1.4-0.6C1907.8,8.9,1908.1,8.3,1908.3,7.3z"/>
				<path class="st2" d="M1915-2.3h4.4l-0.7,3.4c-0.2,1.2-0.7,2.2-1.3,2.9c-0.7,0.7-1.7,1.4-3,1.9l-0.6-1.8c0.8-0.4,1.5-0.7,1.8-1.1
					c0.4-0.4,0.6-0.8,0.7-1.3h-2.1L1915-2.3z"/>
				<path class="st2" d="M1916.5,9.8l4.1-0.4c0.1,0.5,0.2,0.8,0.5,1c0.3,0.2,0.6,0.3,1.1,0.3c0.5,0,1-0.1,1.3-0.4
					c0.3-0.2,0.4-0.4,0.5-0.7c0.1-0.3-0.1-0.5-0.3-0.7c-0.2-0.1-0.8-0.3-1.7-0.4c-1.4-0.2-2.3-0.5-2.8-0.7c-0.5-0.2-0.9-0.6-1.2-1.1
					c-0.3-0.5-0.4-1.1-0.2-1.7c0.1-0.7,0.5-1.3,1-1.8c0.5-0.5,1.1-0.9,1.9-1.1c0.8-0.3,1.8-0.4,3-0.4c1.3,0,2.2,0.1,2.8,0.3
					c0.6,0.2,1,0.5,1.3,0.9c0.3,0.4,0.6,1,0.7,1.7l-4,0.4c0-0.3-0.2-0.6-0.4-0.8c-0.3-0.2-0.6-0.3-1.1-0.3c-0.5,0-0.8,0.1-1.1,0.2
					c-0.2,0.2-0.4,0.4-0.4,0.6c-0.1,0.3,0,0.5,0.3,0.6c0.2,0.1,0.8,0.3,1.7,0.4c1.3,0.2,2.3,0.4,2.9,0.6c0.6,0.3,1,0.7,1.3,1.2
					c0.3,0.5,0.3,1.1,0.2,1.7c-0.1,0.6-0.4,1.2-0.9,1.8c-0.5,0.6-1.2,1-2,1.4s-2,0.5-3.4,0.5c-2,0-3.3-0.3-4-0.8
					C1916.9,11.6,1916.5,10.8,1916.5,9.8z"/>
				<path class="st2" d="M1936.8-2h8.5c1.4,0,2.4,0.4,3.1,1.1c0.6,0.7,0.8,1.6,0.6,2.6c-0.2,0.9-0.6,1.6-1.3,2.2
					c-0.4,0.4-1,0.7-1.8,1c1,0.3,1.7,0.7,2.1,1.3c0.4,0.6,0.5,1.4,0.3,2.3c-0.1,0.8-0.5,1.5-0.9,2.1c-0.5,0.6-1.1,1.1-1.7,1.4
					c-0.4,0.2-1,0.4-1.8,0.5c-1.1,0.1-1.7,0.2-2.1,0.2h-7.9L1936.8-2z M1939.1,9.6h2.3c0.8,0,1.4-0.1,1.7-0.4
					c0.4-0.3,0.6-0.7,0.7-1.1c0.1-0.4,0-0.8-0.3-1.1c-0.3-0.3-0.8-0.4-1.6-0.4h-2.3L1939.1,9.6z M1940.2,3.8h2
					c0.7,0,1.2-0.1,1.6-0.4c0.3-0.2,0.5-0.6,0.6-1.1c0.1-0.4,0-0.8-0.2-1c-0.2-0.2-0.7-0.4-1.4-0.4h-2L1940.2,3.8z"/>
				<path class="st2" d="M1953.5,5.5l-3.8-0.4c0.3-0.7,0.6-1.2,1-1.6c0.4-0.4,0.8-0.7,1.4-1c0.4-0.2,1-0.4,1.6-0.5
					c0.7-0.1,1.4-0.2,2.2-0.2c1.2,0,2.2,0.1,2.9,0.2c0.7,0.1,1.3,0.4,1.7,0.9c0.3,0.3,0.5,0.7,0.6,1.3c0.1,0.6,0.1,1.1,0,1.6
					l-0.9,4.7c-0.1,0.5-0.1,0.9-0.1,1.2c0,0.3,0.1,0.6,0.2,1.1h-3.8c-0.1-0.3-0.2-0.5-0.2-0.6c0-0.1,0-0.4,0-0.7
					c-0.6,0.5-1.2,0.9-1.8,1.1c-0.8,0.3-1.7,0.4-2.6,0.4c-1.3,0-2.2-0.3-2.7-0.9c-0.5-0.6-0.7-1.3-0.6-2.2c0.2-0.8,0.5-1.5,1.1-2
					c0.6-0.5,1.5-0.9,2.9-1.2c1.6-0.3,2.6-0.5,3.1-0.6c0.5-0.1,1-0.3,1.5-0.5c0.1-0.5,0.1-0.9-0.1-1.1c-0.2-0.2-0.5-0.3-1-0.3
					c-0.7,0-1.2,0.1-1.6,0.3C1954.1,4.7,1953.8,5,1953.5,5.5z M1956.7,7.6c-0.6,0.2-1.2,0.4-1.9,0.5c-0.9,0.2-1.4,0.4-1.7,0.7
					c-0.3,0.2-0.4,0.5-0.5,0.8c-0.1,0.3,0,0.6,0.2,0.8c0.2,0.2,0.5,0.3,0.9,0.3c0.5,0,0.9-0.1,1.3-0.3c0.4-0.2,0.8-0.5,1-0.8
					c0.2-0.3,0.4-0.7,0.5-1.2L1956.7,7.6z"/>
				<path class="st2" d="M1968.4-2l-0.8,4.1h2.3l-0.6,3h-2.3l-0.7,3.8c-0.1,0.5-0.1,0.8,0,0.9c0.1,0.2,0.3,0.3,0.6,0.3
					c0.3,0,0.7-0.1,1.3-0.3l-0.3,2.8c-1.1,0.2-2,0.3-2.9,0.3c-1,0-1.7-0.1-2.2-0.4c-0.4-0.3-0.7-0.7-0.8-1.2
					c-0.1-0.5-0.1-1.4,0.2-2.6l0.7-3.8h-1.5l0.6-3h1.5l0.4-2L1968.4-2z"/>
				<path class="st2" d="M1976.3-2l-0.8,4.1h2.3l-0.6,3h-2.3l-0.7,3.8c-0.1,0.5-0.1,0.8,0,0.9c0.1,0.2,0.3,0.3,0.6,0.3
					c0.3,0,0.7-0.1,1.3-0.3l-0.3,2.8c-1.1,0.2-2,0.3-2.9,0.3c-1,0-1.7-0.1-2.2-0.4c-0.4-0.3-0.7-0.7-0.8-1.2
					c-0.1-0.5-0.1-1.4,0.2-2.6l0.7-3.8h-1.5l0.6-3h1.5l0.4-2L1976.3-2z"/>
				<path class="st2" d="M1989.1,8.4h-8.2c-0.1,0.7,0,1.1,0.2,1.5c0.3,0.5,0.8,0.7,1.4,0.7c0.4,0,0.8-0.1,1.2-0.3
					c0.2-0.1,0.5-0.4,0.8-0.7l4,0.4c-0.8,1.1-1.7,1.8-2.7,2.3c-1,0.5-2.3,0.7-3.9,0.7c-1.4,0-2.5-0.2-3.2-0.6
					c-0.7-0.4-1.3-1-1.6-1.9c-0.4-0.9-0.4-1.9-0.2-3.1c0.3-1.7,1.1-3,2.4-4.1c1.3-1,2.9-1.5,4.7-1.5c1.5,0,2.7,0.2,3.5,0.7
					c0.8,0.5,1.3,1.1,1.6,2c0.3,0.9,0.3,2,0,3.4L1989.1,8.4z M1985.3,6.4c0.1-0.8,0-1.4-0.3-1.7c-0.3-0.3-0.7-0.5-1.3-0.5
					c-0.7,0-1.2,0.3-1.7,0.8c-0.3,0.3-0.6,0.8-0.8,1.4H1985.3z"/>
				<path class="st2" d="M1991,2h3.8l-0.3,1.8c0.5-0.8,1-1.3,1.4-1.6c0.4-0.3,1-0.4,1.5-0.4c0.6,0,1.2,0.2,1.9,0.6l-1.8,2.9
					c-0.4-0.2-0.8-0.3-1.1-0.3c-0.5,0-1,0.2-1.4,0.7c-0.5,0.6-1,1.8-1.3,3.5l-0.7,3.6h-4.1L1991,2z"/>
				<path class="st2" d="M1998.9,2h4.3l0.8,7.1l3.4-7.1h4l-6.5,11.4c-0.7,1.3-1.4,2.2-2,2.6c-0.8,0.6-2,1-3.4,1
					c-0.6,0-1.5-0.1-2.7-0.2l0.2-2.9c0.6,0.2,1.2,0.3,1.9,0.3c0.5,0,0.9-0.1,1.2-0.3c0.3-0.2,0.7-0.6,1-1.2L1998.9,2z"/>
				<path class="st2" d="M2018.1-2h12.2l-0.6,3.2h-7.6l-0.5,2.3h7.1l-0.6,3h-7.1l-0.6,2.9h7.9l-0.7,3.3h-12.4L2018.1-2z"/>
				<path class="st2" d="M2029.8,2h4.9l1.1,3l2.6-3h4.5l-4.6,5.1l2.8,5.6h-4.8l-1.3-3.4l-3,3.4h-4.4l5-5.6L2029.8,2z"/>
				<path class="st2" d="M2040.4,16.8l2.9-14.8h3.8l-0.3,1.6c0.7-0.7,1.2-1.1,1.7-1.3c0.7-0.3,1.4-0.5,2.1-0.5c1.4,0,2.4,0.5,3,1.6
					c0.6,1.1,0.7,2.4,0.4,4.1c-0.3,1.8-1,3.1-2.1,4.1c-1,0.9-2.2,1.4-3.5,1.4c-0.6,0-1.2-0.1-1.7-0.3c-0.5-0.2-0.9-0.5-1.2-1l-1,5.1
					H2040.4z M2046.3,7.4c-0.2,0.8-0.1,1.5,0.2,1.9c0.3,0.4,0.7,0.6,1.2,0.6c0.5,0,0.9-0.2,1.3-0.6c0.4-0.4,0.7-1.1,0.9-2
					c0.2-0.9,0.1-1.5-0.1-1.9c-0.3-0.4-0.6-0.6-1.1-0.6c-0.5,0-1,0.2-1.4,0.6C2046.8,5.8,2046.5,6.5,2046.3,7.4z"/>
				<path class="st2" d="M2066.4,8.4h-8.2c-0.1,0.7,0,1.1,0.2,1.5c0.3,0.5,0.8,0.7,1.4,0.7c0.4,0,0.8-0.1,1.2-0.3
					c0.2-0.1,0.5-0.4,0.8-0.7l4,0.4c-0.8,1.1-1.7,1.8-2.7,2.3c-1,0.5-2.3,0.7-3.9,0.7c-1.4,0-2.5-0.2-3.2-0.6
					c-0.7-0.4-1.3-1-1.6-1.9c-0.4-0.9-0.4-1.9-0.2-3.1c0.3-1.7,1.1-3,2.4-4.1c1.3-1,2.8-1.5,4.7-1.5c1.5,0,2.7,0.2,3.5,0.7
					c0.8,0.5,1.3,1.1,1.6,2c0.3,0.9,0.3,2,0,3.4L2066.4,8.4z M2062.6,6.4c0.1-0.8,0-1.4-0.3-1.7c-0.3-0.3-0.7-0.5-1.3-0.5
					c-0.7,0-1.2,0.3-1.7,0.8c-0.3,0.3-0.6,0.8-0.8,1.4H2062.6z"/>
				<path class="st2" d="M2068.3,2h3.8l-0.3,1.8c0.5-0.8,1-1.3,1.4-1.6c0.4-0.3,1-0.4,1.5-0.4c0.6,0,1.2,0.2,1.9,0.6l-1.8,2.9
					c-0.4-0.2-0.8-0.3-1.1-0.3c-0.5,0-1,0.2-1.4,0.7c-0.5,0.6-1,1.8-1.3,3.5l-0.7,3.6h-4.1L2068.3,2z"/>
				<path class="st2" d="M2082.9-2l-0.8,4.1h2.3l-0.6,3h-2.3l-0.7,3.8c-0.1,0.5-0.1,0.8,0,0.9c0.1,0.2,0.3,0.3,0.6,0.3
					c0.3,0,0.7-0.1,1.3-0.3l-0.3,2.8c-1.1,0.2-2,0.3-2.9,0.3c-1,0-1.7-0.1-2.2-0.4c-0.4-0.3-0.7-0.7-0.8-1.2
					c-0.1-0.5-0.1-1.4,0.2-2.6l0.7-3.8h-1.5l0.6-3h1.5l0.4-2L2082.9-2z"/>
			</g>
		</g>
	</g>
</g>
<g id="Layer_3">
</g>
</svg>
