<svg width="23" height="24" viewBox="0 0 23 24" fill="none" xmlns="http://www.w3.org/2000/svg">
<mask id="path-1-inside-1" fill="white">
<path d="M22.6503 21.8602L16.9804 15.9194C18.4382 14.1735 19.237 11.9768 19.237 9.68999C19.237 4.34701 14.922 0 9.61849 0C4.31494 0 0 4.34701 0 9.68999C0 15.033 4.31494 19.38 9.61849 19.38C11.6095 19.38 13.5069 18.775 15.1291 17.6265L20.842 23.6124C21.0808 23.8622 21.402 24 21.7462 24C22.0719 24 22.381 23.8749 22.6156 23.6474C23.1141 23.1641 23.13 22.3628 22.6503 21.8602ZM9.61849 2.52782C13.5387 2.52782 16.7278 5.74069 16.7278 9.68999C16.7278 13.6393 13.5387 16.8522 9.61849 16.8522C5.69833 16.8522 2.50917 13.6393 2.50917 9.68999C2.50917 5.74069 5.69833 2.52782 9.61849 2.52782Z"/>
</mask>
<path d="M22.6503 21.8602L16.9804 15.9194C18.4382 14.1735 19.237 11.9768 19.237 9.68999C19.237 4.34701 14.922 0 9.61849 0C4.31494 0 0 4.34701 0 9.68999C0 15.033 4.31494 19.38 9.61849 19.38C11.6095 19.38 13.5069 18.775 15.1291 17.6265L20.842 23.6124C21.0808 23.8622 21.402 24 21.7462 24C22.0719 24 22.381 23.8749 22.6156 23.6474C23.1141 23.1641 23.13 22.3628 22.6503 21.8602ZM9.61849 2.52782C13.5387 2.52782 16.7278 5.74069 16.7278 9.68999C16.7278 13.6393 13.5387 16.8522 9.61849 16.8522C5.69833 16.8522 2.50917 13.6393 2.50917 9.68999C2.50917 5.74069 5.69833 2.52782 9.61849 2.52782Z" fill="black"/>
<path d="M22.6503 21.8602L22.8312 21.6876L22.8312 21.6876L22.6503 21.8602ZM16.9804 15.9194L16.7885 15.7592L16.6454 15.9305L16.7996 16.092L16.9804 15.9194ZM15.1291 17.6265L15.3099 17.4539L15.1608 17.2977L14.9846 17.4225L15.1291 17.6265ZM20.842 23.6124L20.6612 23.785L20.6613 23.7851L20.842 23.6124ZM22.6156 23.6474L22.4416 23.4679L22.4415 23.4679L22.6156 23.6474ZM22.8312 21.6876L17.1613 15.7468L16.7996 16.092L22.4694 22.0328L22.8312 21.6876ZM17.1723 16.0796C18.6677 14.2888 19.487 12.0354 19.487 9.68999H18.987C18.987 11.9183 18.2088 14.0582 16.7885 15.7592L17.1723 16.0796ZM19.487 9.68999C19.487 4.21069 15.0619 -0.25 9.61849 -0.25V0.25C14.7822 0.25 18.987 4.48334 18.987 9.68999H19.487ZM9.61849 -0.25C4.17513 -0.25 -0.25 4.21069 -0.25 9.68999H0.25C0.25 4.48334 4.45475 0.25 9.61849 0.25V-0.25ZM-0.25 9.68999C-0.25 15.1693 4.17513 19.63 9.61849 19.63V19.13C4.45475 19.13 0.25 14.8966 0.25 9.68999H-0.25ZM9.61849 19.63C11.6613 19.63 13.6092 19.0089 15.2735 17.8306L14.9846 17.4225C13.4046 18.5411 11.5577 19.13 9.61849 19.13V19.63ZM14.9482 17.7991L20.6612 23.785L21.0229 23.4398L15.3099 17.4539L14.9482 17.7991ZM20.6613 23.7851C20.947 24.084 21.3333 24.25 21.7462 24.25V23.75C21.4706 23.75 21.2146 23.6404 21.0227 23.4397L20.6613 23.7851ZM21.7462 24.25C22.137 24.25 22.5084 24.0995 22.7896 23.8268L22.4415 23.4679C22.2535 23.6502 22.0069 23.75 21.7462 23.75V24.25ZM22.7896 23.8269C23.3866 23.2481 23.4057 22.2896 22.8312 21.6876L22.4694 22.0328C22.8543 22.436 22.8415 23.0802 22.4416 23.4679L22.7896 23.8269ZM9.61849 2.77782C13.3988 2.77782 16.4778 5.87701 16.4778 9.68999H16.9778C16.9778 5.60436 13.6785 2.27782 9.61849 2.27782V2.77782ZM16.4778 9.68999C16.4778 13.503 13.3988 16.6022 9.61849 16.6022V17.1022C13.6785 17.1022 16.9778 13.7756 16.9778 9.68999H16.4778ZM9.61849 16.6022C5.83814 16.6022 2.75917 13.503 2.75917 9.68999H2.25917C2.25917 13.7756 5.55852 17.1022 9.61849 17.1022V16.6022ZM2.75917 9.68999C2.75917 5.87701 5.83814 2.77782 9.61849 2.77782V2.27782C5.55852 2.27782 2.25917 5.60436 2.25917 9.68999H2.75917Z" fill="white" mask="url(#path-1-inside-1)"/>
</svg>
