<svg width="17" height="15" viewBox="0 0 17 15" fill="none" xmlns="http://www.w3.org/2000/svg">
<path fill-rule="evenodd" clip-rule="evenodd" d="M14.1521 2.70102C14.8317 2.27407 15.3533 1.59707 15.598 0.790606C14.9617 1.18692 14.2584 1.47353 13.5081 1.6287C12.9094 0.956643 12.0537 0.537598 11.1067 0.537598C9.28977 0.537598 7.81743 2.08431 7.81743 3.99176C7.81743 4.26256 7.84473 4.52644 7.90121 4.77846C5.16741 4.63416 2.74332 3.26041 1.11942 1.16913C0.836062 1.68108 0.674142 2.27407 0.674142 2.90659C0.674142 4.10443 1.25498 5.16192 2.13801 5.78259C1.59859 5.7648 1.09118 5.60765 0.646842 5.35069V5.39319C0.646842 7.0674 1.78028 8.46388 3.28745 8.78014C3.01068 8.86119 2.72073 8.90171 2.41948 8.90171C2.20767 8.90171 2.00056 8.88095 1.80099 8.84043C2.21897 10.2122 3.4343 11.2124 4.87463 11.2391C3.74779 12.1661 2.32911 12.7176 0.788051 12.7176C0.522578 12.7176 0.25993 12.7028 0.00292969 12.6702C1.45926 13.6496 3.1886 14.2218 5.04691 14.2218C11.1001 14.2218 14.4081 8.95804 14.4081 4.39301C14.4081 4.24279 14.4062 4.09356 14.3996 3.9463C15.0426 3.45906 15.6018 2.85025 16.0414 2.15745C15.4512 2.4322 14.8167 2.618 14.1521 2.70102Z" fill="#232323"/>
</svg>
