<svg width="20" height="12" viewBox="0 0 20 12" fill="none" xmlns="http://www.w3.org/2000/svg">
<path fill-rule="evenodd" clip-rule="evenodd" d="M11.194 11.0939C11.194 11.0939 11.5386 11.0565 11.7151 10.8713C11.8767 10.7015 11.8711 10.3813 11.8711 10.3813C11.8711 10.3813 11.8496 8.88573 12.5603 8.66491C13.2607 8.44774 14.16 10.1112 15.1144 10.7508C15.8353 11.2344 16.3826 11.1286 16.3826 11.1286L18.9329 11.0939C18.9329 11.0939 20.2665 11.0136 19.6343 9.98891C19.582 9.90496 19.2654 9.23064 17.7385 7.84552C16.1388 6.3956 16.3536 6.63011 18.2792 4.12173C19.4522 2.59425 19.921 1.66171 19.7744 1.26296C19.6352 0.88155 18.7723 0.982834 18.7723 0.982834L15.9016 1.00017C15.9016 1.00017 15.6887 0.971884 15.5309 1.06404C15.3768 1.15438 15.2769 1.36516 15.2769 1.36516C15.2769 1.36516 14.823 2.54681 14.2169 3.55235C12.9385 5.67293 12.4277 5.78516 12.2185 5.65376C11.7319 5.34626 11.8533 4.42011 11.8533 3.76222C11.8533 1.70642 12.1727 0.849613 11.2323 0.627883C10.9204 0.553973 10.6907 0.505612 9.89223 0.4974C8.86779 0.487363 8.00116 0.50105 7.50995 0.735555C7.1831 0.891587 6.93096 1.24015 7.08504 1.26022C7.27462 1.28486 7.7042 1.37337 7.93206 1.67631C8.22622 2.06776 8.21595 2.94556 8.21595 2.94556C8.21595 2.94556 8.38498 5.36542 7.82093 5.66563C7.43431 5.87184 6.90388 5.4512 5.76363 3.5268C5.17997 2.54133 4.73919 1.45184 4.73919 1.45184C4.73919 1.45184 4.6542 1.24836 4.50198 1.13887C4.31801 1.00656 4.0612 0.965497 4.0612 0.965497L1.33339 0.982834C1.33339 0.982834 0.923427 0.993783 0.773075 1.16807C0.639533 1.32227 0.762803 1.64255 0.762803 1.64255C0.762803 1.64255 2.89854 6.52517 5.31725 8.9861C7.53517 11.2417 10.0529 11.0939 10.0529 11.0939H11.194Z" fill="#232323"/>
</svg>
