<svg width="18" height="13" viewBox="0 0 18 13" fill="none" xmlns="http://www.w3.org/2000/svg">
<path d="M16.8212 1.88824C16.3584 1.08415 15.8562 0.936249 14.8335 0.880004C13.8119 0.812302 11.243 0.78418 9.01751 0.78418C6.78772 0.78418 4.21776 0.812302 3.19723 0.878963C2.17671 0.936249 1.67338 1.08311 1.20631 1.88824C0.729641 2.69129 0.484375 4.0745 0.484375 6.50969C0.484375 6.51177 0.484375 6.51282 0.484375 6.51282C0.484375 6.5149 0.484375 6.51594 0.484375 6.51594V6.51802C0.484375 8.9428 0.729641 10.3364 1.20631 11.1311C1.67338 11.9352 2.17565 12.0811 3.19617 12.1488C4.21776 12.2071 6.78772 12.2415 9.01751 12.2415C11.243 12.2415 13.8119 12.2071 14.8346 12.1498C15.8572 12.0821 16.3595 11.9363 16.8223 11.1322C17.3032 10.3375 17.5464 8.94384 17.5464 6.51906C17.5464 6.51906 17.5464 6.51594 17.5464 6.51386C17.5464 6.51386 17.5464 6.51177 17.5464 6.51073C17.5464 4.0745 17.3032 2.69129 16.8212 1.88824ZM6.88263 9.63753V3.38811L12.2145 6.51282L6.88263 9.63753Z" fill="#232323"/>
</svg>
